<mxfile host="app.diagrams.net" modified="2023-12-04T11:18:44.493Z" agent="Mozilla/5.0 (Macintosh; Intel Mac OS X 10_15_7) AppleWebKit/537.36 (KHTML, like Gecko) Chrome/119.0.0.0 Safari/537.36" version="22.0.0" etag="1M2tgfYxy7VgVZ_oZdGn" type="github">
  <diagram name="Page-1" id="dnonRDek18drMe_EooDJ">
    <mxGraphModel>
      <root>
        <mxCell id="0" />
        <mxCell id="1" parent="0" />
      </root>
    </mxGraphModel>
  </diagram>
</mxfile>
